<?xml version="1.0" encoding="utf-8"?>
<!-- Generator: Adobe Illustrator 16.0.0, SVG Export Plug-In . SVG Version: 6.00 Build 0)  -->
<!DOCTYPE svg PUBLIC "-//W3C//DTD SVG 1.1//EN" "http://www.w3.org/Graphics/SVG/1.1/DTD/svg11.dtd">
<svg version="1.1" id="Capa_1" xmlns="http://www.w3.org/2000/svg" xmlns:xlink="http://www.w3.org/1999/xlink" x="0px" y="0px"
	 width="700px" height="700px" viewBox="0 0 700 700" enable-background="new 0 0 700 700" xml:space="preserve">
<g>
	<path fill="#CC0033" d="M316.162,491.162c-4.887,4.888-4.887,12.788,0,17.676c2.438,2.438,5.638,3.662,8.838,3.662
		s6.4-1.225,8.838-3.662L483.825,358.85c1.162-1.149,2.075-2.537,2.712-4.074c1.263-3.051,1.263-6.488,0-9.55
		c-0.637-1.538-1.563-2.925-2.712-4.087L333.838,191.163c-4.888-4.888-12.788-4.888-17.676,0c-4.887,4.887-4.887,12.788,0,17.675
		L444.825,337.5H62.5c-6.913,0-12.5,5.587-12.5,12.5c0,6.912,5.587,12.5,12.5,12.5h382.325L316.162,491.162z"/>
	<path fill="#CC0033" d="M637.5,0H175c-6.913,0-12.5,5.587-12.5,12.5v275h161.625l-43.313-43.313
		C269.013,232.4,262.5,216.7,262.5,200s6.513-32.4,18.313-44.188C292.6,144.013,308.3,137.5,325,137.5s32.4,6.513,44.2,18.313
		l149.95,149.962c2.85,2.837,5.475,6.05,7.824,9.563c0.813,1.212,1.476,2.45,2.113,3.725l1.175,2.163
		c0.888,1.575,1.75,3.163,2.45,4.862c0.699,1.7,1.225,3.425,1.699,5.163l0.676,2.237c0.462,1.4,0.887,2.825,1.188,4.313
		c1.612,8.1,1.612,16.338,0,24.438c-0.288,1.487-0.726,2.9-1.188,4.313l-0.676,2.237c-0.475,1.738-0.987,3.463-1.688,5.138
		c-0.75,1.775-1.637,3.413-2.55,5.038l-1.087,2c-0.638,1.274-1.301,2.512-2.101,3.712c-2.35,3.513-4.987,6.737-7.862,9.601
		L369.188,544.188C357.4,555.987,341.7,562.5,325,562.5s-32.4-6.513-44.2-18.313C269.013,532.4,262.5,516.7,262.5,500
		s6.513-32.4,18.313-44.188l43.313-43.313H162.5v275c0,6.912,5.587,12.5,12.5,12.5h462.5c6.912,0,12.5-5.588,12.5-12.5v-675
		C650,5.587,644.412,0,637.5,0z"/>
</g>
</svg>
