<?xml version="1.0" encoding="utf-8"?>
<!-- Generator: Adobe Illustrator 16.0.0, SVG Export Plug-In . SVG Version: 6.00 Build 0)  -->
<!DOCTYPE svg PUBLIC "-//W3C//DTD SVG 1.1//EN" "http://www.w3.org/Graphics/SVG/1.1/DTD/svg11.dtd">
<svg version="1.1" id="Capa_1" xmlns="http://www.w3.org/2000/svg" xmlns:xlink="http://www.w3.org/1999/xlink" x="0px" y="0px"
	 width="700px" height="700px" viewBox="0 0 700 700" enable-background="new 0 0 700 700" xml:space="preserve">
<g>
	<g>
		<path fill="#CC0033" d="M552.195,389.508c-7.858-6.145-89.875-97.163-112.022-110.022V43.294C440.173,19.29,420.74,0,396.878,0
			H173.833c-24.005,0-43.294,19.433-43.294,43.294v413.513c0,24.005,19.433,43.294,43.294,43.294h71.586h25.576l-4-34.007
			c-1.286-1.143-2.144-1.857-3.429-3h-14.289h-28.577c1.429-5.716,1.857-12.003,0.714-18.433
			c-3.143-17.86-17.289-32.293-35.15-35.578c-6.573-1.287-13.002-0.857-18.861,0.57V87.732c2.572,0.428,5.287,0.714,8.001,0.714
			c24.291,0,43.866-19.718,43.866-43.866c0-2.572-0.286-5.144-0.714-7.716h133.17c-0.429,2.572-0.715,5.144-0.715,7.716
			c0,24.291,19.575,43.866,43.866,43.866c2.715,0,5.43-0.286,8.002-0.714v314.207l0,0v90.304
			c-15.146-11.145-32.007-46.009-32.007-46.009s-8.287-92.734-55.297-92.734c-1.286,0-2.43,0-3.715,0.144
			c0,0-35.579,3.001-6.145,104.735l13.146,113.023c0,0,14.717,61.298,55.297,103.735v12.574c0,6.716,5.43,12.288,12.288,12.288
			h132.17c6.287,0,11.431-4.715,12.146-10.859c4.715-44.009,23.005-207.614,33.721-232.476c1.715-4.001,3.144-8.002,3.716-12.289
			C570.628,430.374,571.485,404.654,552.195,389.508z"/>
	</g>
	<g>
		<circle fill="#CC0033" cx="290.142" cy="114.738" r="26.291"/>
	</g>
	<g>
		<g>
			<path fill="#CC0033" d="M190.407,253.052c0,45.295,31.721,83.16,74.158,92.733c1.286-2.429,2.572-4.572,4.144-6.858
				c14.003-20.433,33.007-24.148,39.437-24.719c2.572-0.286,5.145-0.429,7.716-0.429c9.145,0,21.576,1.715,34.436,8.573
				c18.433-17.29,30.007-42.009,30.007-69.3c0-52.439-42.58-95.02-95.02-95.02S190.407,200.612,190.407,253.052z"/>
		</g>
	</g>
</g>
</svg>
