<?xml version="1.0" encoding="utf-8"?>
<!-- Generator: Adobe Illustrator 16.0.0, SVG Export Plug-In . SVG Version: 6.00 Build 0)  -->
<!DOCTYPE svg PUBLIC "-//W3C//DTD SVG 1.1//EN" "http://www.w3.org/Graphics/SVG/1.1/DTD/svg11.dtd">
<svg version="1.1" id="Capa_1" xmlns="http://www.w3.org/2000/svg" xmlns:xlink="http://www.w3.org/1999/xlink" x="0px" y="0px"
	 width="700px" height="700px" viewBox="0 0 700 700" enable-background="new 0 0 700 700" xml:space="preserve">
<g>
	<g>
		<path fill="#CC0033" d="M130.538,456.808"/>
		<path fill="#CC0033" d="M396.878,0"/>
		<path fill="#CC0033" d="M402.88,87.732v314.207l0,0v90.304c-15.146-11.145-32.007-46.009-32.007-46.009
			s-8.287-92.734-55.297-92.734c-1.286,0-2.43,0-3.715,0.144c0,0-35.579,3.001-6.145,104.735l13.146,113.023
			c0,0,14.717,61.298,55.297,103.735v12.574c0,6.716,5.43,12.288,12.288,12.288h132.17c6.287,0,11.431-4.715,12.146-10.859
			c4.715-44.009,23.005-207.614,33.721-232.476c1.715-4.001,3.144-8.002,3.716-12.289c2.429-14.002,3.286-39.722-16.004-54.868
			c-7.858-6.145-89.875-97.163-112.022-110.022"/>
		<path fill="#CC0033" d="M351.012,44.581"/>
		<path fill="#CC0033" d="M219.271,44.581"/>
	</g>
</g>
<g>
	<g>
		<path fill="#CC0033" d="M389.871,502.924 M443.772,289.35c-0.145-0.145-0.145-0.145-0.145-0.291V146.095
			c0-35.45-28.913-64.363-64.363-64.363H168.451c-32.98,0-59.858,27.023-59.858,59.859v335.326c0,35.45,28.912,64.363,64.362,64.363
			h61.312h15.546c2.615,0,4.795-2.325,4.504-4.94l-3.341-28.477c-0.291-2.324-2.18-3.923-4.504-3.923h-5.667h-3.487
			c-2.469,0-4.504-2.034-4.504-4.503V118.49c0-2.47,2.035-4.504,4.504-4.504H379.7c14.384,0,26.152,11.769,26.152,26.152v311.208
			 M560.294,459.338 M522.665,707.345 M539.228,723.907 M352.096,781.732h171.005 M355.729,707.49h-3.633 M355.002,693.688
			c0.727,0.872,1.162,1.889,1.162,3.051 M297.468,584.576 M283.52,464.567 M293.98,353.567 M175.86,499.728
			c0,2.325-1.889,4.068-4.067,4.068c-14.238,0-25.862-11.624-25.862-25.862V139.848c0-14.238,11.624-25.861,25.862-25.861
			c2.324,0,4.067,1.889,4.067,4.068V499.728z"/>
	</g>
</g>
</svg>
