<?xml version="1.0" encoding="utf-8"?>
<!-- Generator: Adobe Illustrator 16.0.0, SVG Export Plug-In . SVG Version: 6.00 Build 0)  -->
<!DOCTYPE svg PUBLIC "-//W3C//DTD SVG 1.1//EN" "http://www.w3.org/Graphics/SVG/1.1/DTD/svg11.dtd">
<svg version="1.1" id="Capa_1" xmlns="http://www.w3.org/2000/svg" xmlns:xlink="http://www.w3.org/1999/xlink" x="0px" y="0px"
	 width="700px" height="700px" viewBox="0 0 700 700" enable-background="new 0 0 700 700" xml:space="preserve">
<g>
	<g id="b184_oven">
		<path fill="#CF0F1E" d="M0,52.062v574.999h66.678v20.86h64.584v-20.86h437.494v20.86h64.584v-20.86H700V52.062H0z
			 M506.229,102.189c23.024,0,41.613,18.572,41.613,41.614c0,22.971-18.589,41.578-41.613,41.578
			c-22.971,0-41.578-18.607-41.578-41.578C464.65,120.761,483.258,102.189,506.229,102.189z M397.938,102.189
			c22.988,0,41.613,18.572,41.613,41.614c0,22.971-18.625,41.578-41.613,41.578c-23.007,0-41.614-18.607-41.614-41.578
			C356.323,120.761,374.931,102.189,397.938,102.189z M281.22,106.287h31.273v81.24H281.22V106.287z M218.765,106.287h31.237v81.24
			h-31.237V106.287z M45.835,104.176H179.19v75.032H45.835V104.176z M646.839,602.121H43.76V220.822h603.079V602.121z
			 M620.764,185.381c-22.971,0-41.613-18.607-41.613-41.578c0-23.042,18.643-41.614,41.613-41.614s41.596,18.572,41.596,41.614
			C662.359,166.774,643.734,185.381,620.764,185.381z"/>
		<path fill="#CF0F1E" d="M547.576,477.227h-15.255v28.346h-20.86c-1.897-24.763-7.468-53.037-10.731-77.711
			c-8.018-60.983,22.847-36.967,22.847-36.967s4.684,3.956,25.508,18.324c32.213,27.778,17.915-29.552-10.731-67.423
			c-28.611-37.835-35.831-46.243-39.396-8.691c-3.565,37.587-49.152,45.622-49.152,45.622s-8,3.087-51.068,12.169
			c-64.442,7.733-62.633,81.72-62.633,81.72c-41.206-25.082,17.95-77.285,17.95-77.285c-91.812,0-135.892,60.522-156.663,110.242
			h-31.698v-16.142h-15.29v101.71h397.174V477.227z"/>
		<path fill="#CF0F1E" d="M316.715,360.119c-3.3-7.449-4.399-14.438-3.193-20.097c1.206-5.659,4.222-10.714,8.55-15.592
			c5.162-5.96,10.483-14.971,9.685-24.798c-0.603-9.845-7.255-17.774-15.06-20.239c3.602,7.379,4.559,14.279,3.14,19.671
			c-1.543,5.57-4.683,10.252-9.4,15.485c-5.446,6.51-10.005,15.663-8.799,25.366C302.648,349.548,309.034,357.246,316.715,360.119z"
			/>
		<path fill="#CF0F1E" d="M355.738,368.758c-1.81-6.102-1.898-11.086-0.763-14.793c1.224-3.601,3.229-6.759,6.279-10.146
			c3.831-4.505,8.053-11.743,7.131-19.477c-0.674-7.823-6.351-13.818-12.665-15.006c2.11,6.066,2.04,10.98,0.763,14.403
			c-1.455,3.53-3.441,6.403-6.883,10.146c-4.168,4.984-7.769,12.328-6.492,20.026C344.138,361.468,349.512,367.197,355.738,368.758z
			"/>
	</g>
	<g id="Capa_1_232_">
	</g>
</g>
</svg>
