<?xml version="1.0" encoding="utf-8"?>
<!-- Generator: Adobe Illustrator 16.0.0, SVG Export Plug-In . SVG Version: 6.00 Build 0)  -->
<!DOCTYPE svg PUBLIC "-//W3C//DTD SVG 1.1//EN" "http://www.w3.org/Graphics/SVG/1.1/DTD/svg11.dtd">
<svg version="1.1" id="Layer_1" xmlns="http://www.w3.org/2000/svg" xmlns:xlink="http://www.w3.org/1999/xlink" x="0px" y="0px"
	 width="336.118px" height="340px" viewBox="0 0 336.118 340" enable-background="new 0 0 336.118 340" xml:space="preserve">
<path fill="#242768" d="M176.458,167.596c0,4.409-3.574,7.983-7.982,7.983c-4.409,0-7.983-3.575-7.983-7.983
	c0-4.408,3.574-7.983,7.983-7.983C172.883,159.613,176.458,163.188,176.458,167.596z"/>
<path fill="#242768" d="M336.118,167.596C336.094,83.038,273.1,11.733,189.188,1.286C105.277-9.164,26.722,44.515,5.961,126.484
	c-20.76,81.974,22.78,166.571,101.545,197.321c9.694,3.785,19.728,6.643,29.963,8.536c25.652,4.761,52.061,3.544,77.171-3.555
	c4.997-1.418,9.937-3.079,14.78-4.981C293.945,298.906,336.397,236.757,336.118,167.596z M89.506,112.783
	c2.491,1.418,4.031,4.058,4.039,6.922c0.008,2.865-1.524,5.516-4.007,6.942c-2.483,1.427-5.542,1.411-8.014-0.035l-20.386-11.768
	c-6.903,13.99-10.98,29.199-12.001,44.768H72.68c4.409,0,7.983,3.575,7.983,7.983c0,4.409-3.574,7.983-7.983,7.983H49.002
	c1.041,15.587,5.13,30.816,12.029,44.834l20.491-11.834c2.472-1.446,5.531-1.461,8.014-0.035s4.015,4.077,4.007,6.941
	c-0.008,2.865-1.547,5.505-4.039,6.924l-27.652,15.966c-0.842,0.459-1.758,0.769-2.705,0.899c-0.183,0-0.362,0.056-0.554,0.07
	c-0.191,0.016-0.487,0.098-0.725,0.098c-1.653-0.02-3.263-0.555-4.6-1.524l-0.335-0.257c-0.795-0.604-1.473-1.355-1.996-2.21
	c0-0.048,0-0.104-0.047-0.16c-24.121-41.72-24.187-93.129-0.175-134.911c0.105-0.226,0.105-0.456,0.222-0.67
	c0.187-0.234,0.382-0.456,0.592-0.663C63.292,79.05,79.96,62.383,99.957,50.623c0.21-0.21,0.429-0.409,0.663-0.592
	c0.214-0.121,0.456-0.121,0.67-0.223c41.591-23.941,92.779-23.941,134.371,0c0.221,0.102,0.455,0.102,0.67,0.223
	c0.229,0.183,0.453,0.382,0.662,0.592c19.992,11.76,36.66,28.424,48.424,48.417c0.211,0.21,0.406,0.437,0.595,0.67
	c0.116,0.214,0.116,0.444,0.222,0.67c24.012,41.782,23.945,93.192-0.176,134.911c0,0.055,0,0.113-0.046,0.16
	c-1.062,1.836-2.808,3.173-4.854,3.723c-2.047,0.549-4.226,0.262-6.062-0.799l-27.651-15.966c-3.785-2.222-5.072-7.079-2.877-10.88
	c2.194-3.799,7.043-5.117,10.859-2.95l20.492,11.834c6.897-14.017,10.988-29.247,12.027-44.834H264.27
	c-4.409,0-7.982-3.575-7.982-7.983c0-4.408,3.573-7.983,7.982-7.983h23.544c-1.015-15.564-5.084-30.778-11.976-44.768
	l-20.391,11.768c-2.471,1.446-5.531,1.462-8.014,0.035c-2.482-1.427-4.012-4.077-4.008-6.942c0.008-2.865,1.548-5.504,4.039-6.922
	l20.468-11.815c-8.712-12.957-19.853-24.097-32.81-32.809l-11.814,20.46c-1.419,2.491-4.059,4.031-6.922,4.039
	c-2.865,0.004-5.516-1.524-6.942-4.007c-1.426-2.483-1.411-5.543,0.039-8.014l11.765-20.378
	c-13.998-6.907-29.215-10.984-44.791-12.002V71.8c0,4.409-3.576,7.983-7.983,7.983c-4.409,0-7.983-3.575-7.983-7.983V48.256
	c-15.564,1.014-30.778,5.083-44.768,11.975l11.768,20.382c1.446,2.471,1.461,5.527,0.035,8.014
	c-1.426,2.483-4.077,4.011-6.942,4.007c-2.865-0.008-5.504-1.548-6.923-4.039l-11.814-20.46
	c-12.957,8.709-24.097,19.853-32.809,32.81L89.506,112.783z M106.271,203.52c-2.206-3.819-0.896-8.699,2.924-10.906l35.802-20.676
	c-0.296-1.43-0.452-2.883-0.472-4.341c0-13.226,10.723-23.949,23.949-23.949c13.226,0,23.948,10.723,23.948,23.949
	s-10.723,23.949-23.948,23.949c-5.656-0.059-11.102-2.14-15.35-5.867l-35.966,20.754c-3.816,2.205-8.7,0.896-10.903-2.92
	L106.271,203.52z M224.355,295.324c0,4.408-3.575,7.982-7.983,7.982h-95.795c-4.409,0-7.983-3.574-7.983-7.982v-47.898
	c0-4.408,3.574-7.982,7.983-7.982h95.795c4.408,0,7.983,3.574,7.983,7.982V295.324z"/>
<path fill="#242768" d="M106.333,235H230v74.334H106.333V235z"/>
<rect x="-3" y="243.5" fill="none" width="336.118" height="86"/>
<text transform="matrix(1 0 0 1 127.9941 295.7539)" fill="#FFFFFF" font-family="'Lato-Heavy'" font-size="70">ºC</text>
</svg>
