<?xml version="1.0" encoding="utf-8"?>
<!-- Generator: Adobe Illustrator 16.0.0, SVG Export Plug-In . SVG Version: 6.00 Build 0)  -->
<!DOCTYPE svg PUBLIC "-//W3C//DTD SVG 1.1//EN" "http://www.w3.org/Graphics/SVG/1.1/DTD/svg11.dtd">
<svg version="1.1" id="Capa_1" xmlns="http://www.w3.org/2000/svg" xmlns:xlink="http://www.w3.org/1999/xlink" x="0px" y="0px"
	 width="700px" height="700px" viewBox="0 0 700 700" enable-background="new 0 0 700 700" xml:space="preserve">
<g id="b184_oven">
	<path fill="#242768" d="M0,52.062v575h66.678v20.859h64.584v-20.859h437.494v20.859h64.584v-20.859H700v-575H0z M506.229,102.189
		c23.024,0,41.613,18.572,41.613,41.614c0,22.971-18.589,41.578-41.613,41.578c-22.971,0-41.577-18.607-41.577-41.578
		C464.65,120.761,483.258,102.189,506.229,102.189z M397.938,102.189c22.988,0,41.613,18.572,41.613,41.614
		c0,22.971-18.625,41.578-41.613,41.578c-23.007,0-41.613-18.607-41.613-41.578C356.323,120.761,374.931,102.189,397.938,102.189z
		 M281.22,106.287h31.273v81.24H281.22V106.287z M218.765,106.287h31.237v81.24h-31.237V106.287z M45.835,104.176H179.19v75.032
		H45.835V104.176z M646.839,602.121H43.76V220.822h603.079V602.121z M620.764,185.381c-22.971,0-41.612-18.607-41.612-41.578
		c0-23.042,18.643-41.614,41.612-41.614c22.971,0,41.597,18.572,41.597,41.614C662.359,166.774,643.734,185.381,620.764,185.381z"/>
</g>
<g id="Capa_1_232_">
</g>
<g>
	<g>
		<path fill="#242768" d="M390.947,435.021c-10.063,3.407-20.57,5.132-31.308,5.132c-16.45,0-32.356-4.043-46.446-11.76
			c-11.163,9.764-25.533,15.245-40.458,15.245c-5.145,0-10.119-0.702-14.898-1.897l14.796,79.9H423.06l13.751-74.245
			c-3.102,0.527-6.268,0.865-9.518,0.865C413.819,448.262,401.121,443.602,390.947,435.021z M318.177,506.942
			c-0.221,0.03-0.446,0.046-0.67,0.046c-2.26,0-4.233-1.66-4.565-3.963l-5.788-40.028c-0.364-2.523,1.388-4.872,3.916-5.237
			c2.505-0.333,4.873,1.387,5.237,3.915l5.787,40.028C322.458,504.228,320.701,506.576,318.177,506.942z M356.224,502.572
			c0,2.553-2.069,4.624-4.623,4.624c-2.552,0-4.622-2.071-4.622-4.624v-40.445c0-2.551,2.07-4.622,4.622-4.622
			c2.554,0,4.623,2.071,4.623,4.622V502.572z M390.264,503.025c-0.334,2.303-2.311,3.963-4.566,3.963
			c-0.223,0-0.443-0.016-0.67-0.046c-2.525-0.366-4.281-2.71-3.916-5.239l5.788-40.028c0.368-2.527,2.728-4.253,5.236-3.915
			c2.523,0.365,4.279,2.708,3.914,5.237L390.264,503.025z"/>
		<path fill="#242768" d="M250.881,429.564c0.84,0.387,1.691,0.762,2.556,1.108c0.832,0.327,1.673,0.633,2.519,0.924
			c5.27,1.79,10.9,2.803,16.775,2.803c15.554,0,29.486-6.833,39.064-17.612c13.507,8.861,29.989,14.126,47.841,14.126
			c11.916,0,23.213-2.365,33.443-6.549c8.625,9.014,20.749,14.657,34.21,14.657c3.91,0,7.691-0.527,11.329-1.42
			c0.827-0.203,1.659-0.389,2.469-0.633c0.856-0.26,1.683-0.583,2.515-0.889c18.115-6.655,31.067-24.01,31.067-44.436
			c0-21.152-13.867-39.049-33.001-45.142c-4.563-37.991-39.528-67.538-82.027-67.538c-36.341,0-67.131,21.628-78.168,51.632
			c-2.846-0.48-5.755-0.786-8.741-0.786c-28.882,0-52.289,23.412-52.289,52.289C220.442,403.17,232.927,421.281,250.881,429.564z"/>
	</g>
</g>
<line fill="#242768" stroke="#242768" stroke-width="7" stroke-miterlimit="10" x1="93.5" y1="531.5" x2="586.5" y2="531.5"/>
</svg>
