<?xml version="1.0" encoding="utf-8"?>
<!-- Generator: Adobe Illustrator 16.0.0, SVG Export Plug-In . SVG Version: 6.00 Build 0)  -->
<!DOCTYPE svg PUBLIC "-//W3C//DTD SVG 1.1//EN" "http://www.w3.org/Graphics/SVG/1.1/DTD/svg11.dtd">
<svg version="1.1" id="Capa_1" xmlns="http://www.w3.org/2000/svg" xmlns:xlink="http://www.w3.org/1999/xlink" x="0px" y="0px"
	 width="700px" height="700px" viewBox="0 0 700 700" enable-background="new 0 0 700 700" xml:space="preserve">
<g id="b184_oven">
	<path fill="#CC0033" d="M0,52.062v574.999h66.678v20.86h64.584v-20.86h437.494v20.86h64.584v-20.86H700V52.062H0z M506.229,102.189
		c23.024,0,41.613,18.572,41.613,41.614c0,22.971-18.589,41.578-41.613,41.578c-22.971,0-41.578-18.607-41.578-41.578
		C464.65,120.761,483.258,102.189,506.229,102.189z M397.938,102.189c22.988,0,41.613,18.572,41.613,41.614
		c0,22.971-18.625,41.578-41.613,41.578c-23.007,0-41.614-18.607-41.614-41.578C356.323,120.761,374.931,102.189,397.938,102.189z
		 M281.22,106.287h31.273v81.24H281.22V106.287z M218.765,106.287h31.237v81.24h-31.237V106.287z M45.835,104.176H179.19v75.032
		H45.835V104.176z M646.839,602.121H43.76V220.822h603.079V602.121z M620.764,185.381c-22.971,0-41.613-18.607-41.613-41.578
		c0-23.042,18.643-41.614,41.613-41.614s41.596,18.572,41.596,41.614C662.359,166.774,643.734,185.381,620.764,185.381z"/>
</g>
<g id="Capa_1_232_">
</g>
<g>
	<path fill="#CC0033" d="M335.845,446.297c1.838-3.203,4.925-4.969,8.753-4.969c7.106,0.027,15.658,2.959,22.317,7.648
		c6.143,4.324,15.049,12.339,22.564,26.006c1.412,2.564,3.726,4.303,6.204,4.715c0.008-0.594,0.004-1.273,0.004-1.912
		c0-1.375-0.004-3.007,0.051-4.809v-98.184c0-9.785,7.648-17.743,17.053-17.743s17.053,7.958,17.053,17.743v68.754
		c0,1.219,0.959,2.217,2.131,2.217c1.173,0,2.132-0.998,2.132-2.217v-99.805c0-9.785,7.648-17.742,17.054-17.742
		c9.404,0,17.052,7.957,17.052,17.742v99.805c0,1.219,0.959,2.217,2.132,2.217c1.172,0,2.132-0.998,2.132-2.217v-79.844
		c0-8.561,6.692-15.524,14.92-15.524c8.229,0,14.922,6.964,14.922,15.524v88.715c0,1.22,0.959,2.218,2.132,2.218
		c1.172,0,2.132-0.998,2.132-2.218v-55.446c0-8.562,6.692-15.525,14.964-15.525c8.227,0,14.92,6.964,14.92,15.525l-0.008,120.638
		C532.33,579.634,495.765,588,460.538,588c-29.186,0-55.399-15.063-68.325-39.141c-1.663-2.795-6.16-10.149-11.493-18.869
		c-13.336-21.793-24.505-40.104-26.155-43.359c-3.68-7.248-7.784-12.912-11.868-16.381c-3.696-3.141-5.956-7.146-7.793-10.664
		C333.956,457.759,333.129,451.038,335.845,446.297z"/>
</g>
<rect x="89.5" y="256.5" fill="none" stroke="#CC0033" stroke-width="3" stroke-miterlimit="10" width="514" height="308"/>
</svg>
