<?xml version="1.0" encoding="utf-8"?>
<!-- Generator: Adobe Illustrator 16.0.0, SVG Export Plug-In . SVG Version: 6.00 Build 0)  -->
<!DOCTYPE svg PUBLIC "-//W3C//DTD SVG 1.1//EN" "http://www.w3.org/Graphics/SVG/1.1/DTD/svg11.dtd">
<svg version="1.1" id="Layer_1" xmlns="http://www.w3.org/2000/svg" xmlns:xlink="http://www.w3.org/1999/xlink" x="0px" y="0px"
	 width="407px" height="523px" viewBox="0 0 407 523" enable-background="new 0 0 407 523" xml:space="preserve">
<path fill="#242768" d="M1,0v512h392V0H1z M363,482H31V30h332V482z"/>
<path fill="#242768" d="M333,120H61v332h272V120z M303,422H91V150h212V422z"/>
<path fill="#242768" d="M167,60h60v30h-60V60z"/>
<rect x="80.5" y="135.5" fill="#242768" width="241" height="301"/>
<g>
	<g>
		<path fill="#FFFFFF" d="M197,228.527l-39.074,63.204C153.387,299.031,151,307.414,151,316c0,25.363,20.637,46,46,46
			c25.363,0,46-20.637,46-46c0-8.586-2.387-16.969-6.906-24.234L197,228.527z"/>
		<path fill="#FFFFFF" d="M261.594,275.957L197,171.473l-64.57,104.453C124.953,287.953,121,301.809,121,316
			c0,41.906,34.094,76,76,76s76-34.094,76-76C273,301.809,269.047,287.953,261.594,275.957z M197,362c-25.363,0-46-20.637-46-46
			c0-8.586,2.387-16.969,6.926-24.27L197,228.527l39.094,63.239C240.613,299.031,243,307.414,243,316
			C243,341.363,222.363,362,197,362z"/>
	</g>
	<g>
		<path fill="#FFFFFF" d="M197,228.527l-39.074,63.204C153.387,299.031,151,307.414,151,316c0,25.363,20.637,46,46,46
			c25.363,0,46-20.637,46-46c0-8.586-2.387-16.969-6.906-24.234L197,228.527z"/>
		<path fill="#242768" d="M261.594,275.957L197,171.473l-64.57,104.453C124.953,287.953,121,301.809,121,316
			c0,41.906,34.094,76,76,76s76-34.094,76-76C273,301.809,269.047,287.953,261.594,275.957z M197,362c-25.363,0-46-20.637-46-46
			c0-8.586,2.387-16.969,6.926-24.27L197,228.527l39.094,63.239C240.613,299.031,243,307.414,243,316
			C243,341.363,222.363,362,197,362z"/>
	</g>
</g>
<path display="none" fill="#FFFFFF" d="M231.428,238.973c0-6.628-5.371-12-12-12h-43.929c-6.627,0-12,5.372-12,12l-19.535,92.832
	c0,6.627,23.373,27,30,27l53.5,5c6.627,0,21.5-23.373,21.5-30L231.428,238.973z"/>
</svg>
