<?xml version="1.0" encoding="utf-8"?>
<!-- Generator: Adobe Illustrator 16.0.0, SVG Export Plug-In . SVG Version: 6.00 Build 0)  -->
<!DOCTYPE svg PUBLIC "-//W3C//DTD SVG 1.1//EN" "http://www.w3.org/Graphics/SVG/1.1/DTD/svg11.dtd">
<svg version="1.1" id="Capa_1" xmlns="http://www.w3.org/2000/svg" xmlns:xlink="http://www.w3.org/1999/xlink" x="0px" y="0px"
	 width="700px" height="700px" viewBox="0 0 700 700" enable-background="new 0 0 700 700" xml:space="preserve">
<g id="b184_oven">
	<path fill="#242768" d="M0,52.062v575h66.678v20.859h64.584v-20.859h437.494v20.859h64.584v-20.859H700v-575H0z M506.229,102.189
		c23.024,0,41.613,18.572,41.613,41.614c0,22.971-18.589,41.578-41.613,41.578c-22.971,0-41.577-18.607-41.577-41.578
		C464.65,120.761,483.258,102.189,506.229,102.189z M397.938,102.189c22.988,0,41.613,18.572,41.613,41.614
		c0,22.971-18.625,41.578-41.613,41.578c-23.007,0-41.613-18.607-41.613-41.578C356.323,120.761,374.931,102.189,397.938,102.189z
		 M281.22,106.287h31.273v81.24H281.22V106.287z M218.765,106.287h31.237v81.24h-31.237V106.287z M45.835,104.176H179.19v75.032
		H45.835V104.176z M646.839,602.121H43.76V220.822h603.079V602.121z M620.764,185.381c-22.971,0-41.612-18.607-41.612-41.578
		c0-23.042,18.643-41.614,41.612-41.614c22.971,0,41.597,18.572,41.597,41.614C662.359,166.774,643.734,185.381,620.764,185.381z"/>
</g>
<g>
	<g>
		<g>
			<path fill="#242768" d="M598.007,427.345c-0.806-1.611-2.821-2.418-4.434-2.819c-9.27,0-89.068-3.226-89.068-95.921
				c0-2.822-2.419-5.24-5.239-5.24s-5.239,2.418-5.239,5.24c0,92.696-79.8,95.921-88.665,95.921c-1.21,0-2.419,0.401-3.226,1.208
				c-0.807,0.403-1.209,1.21-1.611,1.611c-0.808,1.612-0.808,3.628,0,5.24c0.806,1.611,2.82,2.82,4.837,2.82c0,0,0,0,0.401,0
				c9.271,0,88.666,3.225,88.666,95.921c0,2.821,2.419,5.239,5.239,5.239c2.821,0,5.239-2.418,5.239-5.239
				c0-92.293,79.396-95.921,88.666-95.921c2.016,0,3.628-1.209,4.837-2.82C599.216,430.973,599.216,428.957,598.007,427.345z
				 M499.266,491.829c-11.688-38.287-40.304-54.813-62.873-62.065c22.569-7.255,51.186-23.779,62.873-62.065
				c11.688,38.286,40.303,54.812,62.872,62.065C539.567,437.018,510.953,453.542,499.266,491.829z"/>
			<path fill="#242768" d="M432.766,322.558c2.821,0,5.239-2.418,5.239-5.643c0-2.821-2.418-5.238-5.239-5.238
				c-4.836,0-48.362-1.612-48.362-52.395c0-2.821-2.418-5.239-5.239-5.239s-5.239,2.418-5.239,5.239
				c0,50.782-43.526,52.395-48.364,52.395c-0.402,0-0.402,0-0.402,0c-2.821,0.402-4.836,2.417-4.836,5.238
				c0,2.821,2.418,5.239,5.238,5.239c5.239,0,48.364,1.612,48.364,52.395c0,2.82,2.418,5.238,5.239,5.238
				c2.418,0.404,4.836-2.016,4.836-4.836c0-50.781,43.527-52.394,48.364-52.394L432.766,322.558L432.766,322.558z M378.76,345.53
				c-6.447-15.315-18.137-23.778-29.018-28.615c11.688-4.836,22.568-14.105,29.018-28.614c6.449,15.314,18.138,23.778,29.02,28.614
				C396.09,321.752,385.209,331.021,378.76,345.53z"/>
			<path fill="#242768" d="M386.418,493.441c-4.837,0-48.363-1.612-48.363-52.395c0-2.821-2.419-5.239-5.239-5.239
				c-2.821,0-5.239,2.418-5.239,5.239c0,50.781-43.527,52.395-48.363,52.395c-0.403,0-0.403,0-0.403,0
				c-2.821,0.402-4.836,2.418-4.836,5.238c0,2.821,2.418,5.239,5.239,5.239c5.239,0,48.363,1.612,48.363,52.395
				c0,2.82,2.418,5.239,5.239,5.239c2.418,0.807,4.837-1.611,4.837-4.837c0-50.781,43.525-52.394,48.361-52.394h0.404
				c2.82,0,5.238-2.418,5.238-5.644C391.656,495.859,389.238,493.441,386.418,493.441z M332.412,527.699
				c-6.853-15.315-18.137-23.779-29.02-28.615c11.688-4.837,22.57-14.105,29.02-28.615c6.448,15.315,18.136,23.778,29.018,28.615
				C349.742,503.92,338.86,513.19,332.412,527.699z"/>
		</g>
	</g>
</g>
<g id="Capa_1_232_">
</g>
</svg>
