<?xml version="1.0" encoding="utf-8"?>
<!-- Generator: Adobe Illustrator 16.0.0, SVG Export Plug-In . SVG Version: 6.00 Build 0)  -->
<!DOCTYPE svg PUBLIC "-//W3C//DTD SVG 1.1//EN" "http://www.w3.org/Graphics/SVG/1.1/DTD/svg11.dtd">
<svg version="1.1" id="Capa_1" xmlns="http://www.w3.org/2000/svg" xmlns:xlink="http://www.w3.org/1999/xlink" x="0px" y="0px"
	 width="700px" height="700px" viewBox="0 0 700 700" enable-background="new 0 0 700 700" xml:space="preserve">
<g id="b184_oven">
	<path fill="#CF0F1E" d="M0,52.062v574.999h66.678v20.86h64.584v-20.86h437.494v20.86h64.584v-20.86H700V52.062H0z M506.229,102.189
		c23.024,0,41.613,18.572,41.613,41.614c0,22.971-18.589,41.578-41.613,41.578c-22.971,0-41.578-18.607-41.578-41.578
		C464.65,120.761,483.258,102.189,506.229,102.189z M397.938,102.189c22.988,0,41.613,18.572,41.613,41.614
		c0,22.971-18.625,41.578-41.613,41.578c-23.007,0-41.614-18.607-41.614-41.578C356.323,120.761,374.931,102.189,397.938,102.189z
		 M281.22,106.287h31.273v81.24H281.22V106.287z M218.765,106.287h31.237v81.24h-31.237V106.287z M45.835,104.176H179.19v75.032
		H45.835V104.176z M646.839,602.121H43.76V220.822h603.079V602.121z M620.764,185.381c-22.971,0-41.613-18.607-41.613-41.578
		c0-23.042,18.643-41.614,41.613-41.614s41.596,18.572,41.596,41.614C662.359,166.774,643.734,185.381,620.764,185.381z"/>
</g>
<g>
	<g>
		<g>
			<path fill="#CF0F1E" d="M598.007,427.345c-0.806-1.612-2.821-2.418-4.434-2.82c-9.269,0-89.068-3.225-89.068-95.921
				c0-2.822-2.419-5.24-5.239-5.24c-2.821,0-5.24,2.418-5.24,5.24c0,92.696-79.799,95.921-88.665,95.921
				c-1.21,0-2.419,0.402-3.225,1.208c-0.807,0.404-1.209,1.21-1.612,1.612c-0.807,1.612-0.807,3.628,0,5.24
				c0.806,1.611,2.821,2.82,4.837,2.82c0,0,0,0,0.402,0c9.27,0,88.666,3.225,88.666,95.921c0,2.821,2.419,5.239,5.239,5.239
				c2.821,0,5.239-2.418,5.239-5.239c0-92.293,79.397-95.921,88.666-95.921c2.016,0,3.628-1.209,4.837-2.82
				C599.216,430.973,599.216,428.957,598.007,427.345z M499.266,491.829c-11.688-38.287-40.304-54.812-62.873-62.065
				c22.569-7.255,51.185-23.779,62.873-62.066c11.688,38.287,40.302,54.812,62.872,62.066
				C539.567,437.018,510.953,453.542,499.266,491.829z"/>
			<path fill="#CF0F1E" d="M432.766,322.558c2.821,0,5.239-2.418,5.239-5.643c0-2.821-2.418-5.238-5.239-5.238
				c-4.836,0-48.363-1.612-48.363-52.395c0-2.821-2.418-5.239-5.239-5.239s-5.239,2.418-5.239,5.239
				c0,50.782-43.527,52.395-48.364,52.395c-0.403,0-0.403,0-0.403,0c-2.821,0.402-4.836,2.417-4.836,5.238s2.418,5.239,5.239,5.239
				c5.239,0,48.364,1.612,48.364,52.395c0,2.82,2.418,5.238,5.239,5.238c2.418,0.404,4.836-2.015,4.836-4.836
				c0-50.781,43.527-52.394,48.364-52.394H432.766L432.766,322.558z M378.76,345.53c-6.448-15.315-18.137-23.778-29.018-28.615
				c11.688-4.836,22.569-14.105,29.018-28.614c6.449,15.314,18.137,23.778,29.019,28.614
				C396.09,321.752,385.209,331.021,378.76,345.53z"/>
			<path fill="#CF0F1E" d="M386.418,493.441c-4.837,0-48.363-1.612-48.363-52.394c0-2.821-2.419-5.239-5.24-5.239
				s-5.239,2.418-5.239,5.239c0,50.781-43.527,52.394-48.363,52.394c-0.403,0-0.403,0-0.403,0c-2.821,0.403-4.836,2.418-4.836,5.239
				s2.418,5.239,5.239,5.239c5.239,0,48.363,1.612,48.363,52.394c0,2.821,2.418,5.24,5.239,5.24
				c2.418,0.806,4.837-1.612,4.837-4.837c0-50.781,43.526-52.394,48.362-52.394h0.404c2.82,0,5.238-2.418,5.238-5.643
				C391.656,495.859,389.238,493.441,386.418,493.441z M332.412,527.699c-6.852-15.315-18.137-23.779-29.019-28.615
				c11.688-4.837,22.57-14.105,29.019-28.615c6.448,15.315,18.136,23.778,29.018,28.615
				C349.742,503.92,338.86,513.19,332.412,527.699z"/>
		</g>
	</g>
</g>
<g id="Capa_1_232_">
</g>
</svg>
