<?xml version="1.0" encoding="utf-8"?>
<!-- Generator: Adobe Illustrator 16.0.0, SVG Export Plug-In . SVG Version: 6.00 Build 0)  -->
<!DOCTYPE svg PUBLIC "-//W3C//DTD SVG 1.1//EN" "http://www.w3.org/Graphics/SVG/1.1/DTD/svg11.dtd">
<svg version="1.1" id="Capa_1" xmlns="http://www.w3.org/2000/svg" xmlns:xlink="http://www.w3.org/1999/xlink" x="0px" y="0px"
	 width="700px" height="700px" viewBox="0 0 700 700" enable-background="new 0 0 700 700" xml:space="preserve">
<g>
	<path fill="#FFFFFF" d="M525,291.667H233.333c-6.44,0-11.667,5.215-11.667,11.667S226.894,315,233.333,315H525
		c6.44,0,11.667-5.215,11.667-11.667S531.44,291.667,525,291.667z"/>
	<path fill="#FFFFFF" d="M233.333,221.667H350c6.44,0,11.667-5.215,11.667-11.667S356.44,198.333,350,198.333H233.333
		c-6.44,0-11.667,5.215-11.667,11.667S226.894,221.667,233.333,221.667z"/>
	<path fill="#FFFFFF" d="M525,385H233.333c-6.44,0-11.667,5.215-11.667,11.666c0,6.452,5.227,11.668,11.667,11.668H525
		c6.44,0,11.667-5.216,11.667-11.668C536.667,390.215,531.44,385,525,385z"/>
	<path fill="#FFFFFF" d="M525,478.333H233.333c-6.44,0-11.667,5.215-11.667,11.667s5.227,11.667,11.667,11.667H525
		c6.44,0,11.667-5.215,11.667-11.667S531.44,478.333,525,478.333z"/>
	<path fill="#FFFFFF" d="M525,571.667H233.333c-6.44,0-11.667,5.215-11.667,11.666c0,6.452,5.227,11.667,11.667,11.667H525
		c6.44,0,11.667-5.215,11.667-11.667C536.667,576.882,531.44,571.667,525,571.667z"/>
	<path fill="#FFFFFF" d="M571.667,170.17V0H70v641.667h58.333V700H630V228.503L571.667,170.17z M466.667,98.163l105,105
		l18.503,18.503H466.667V98.163z M93.333,618.333v-595h455v123.503L459.83,58.333H128.333v560H93.333z M151.667,676.667v-35v-560
		h291.667V245h163.334v431.667H151.667z"/>
</g>
</svg>
