<?xml version="1.0" encoding="utf-8"?>
<!-- Generator: Adobe Illustrator 16.0.0, SVG Export Plug-In . SVG Version: 6.00 Build 0)  -->
<!DOCTYPE svg PUBLIC "-//W3C//DTD SVG 1.1//EN" "http://www.w3.org/Graphics/SVG/1.1/DTD/svg11.dtd">
<svg version="1.1" id="Layer_1" xmlns="http://www.w3.org/2000/svg" xmlns:xlink="http://www.w3.org/1999/xlink" x="0px" y="0px"
	 width="350px" height="83.5px" viewBox="0 0 350 83.5" enable-background="new 0 0 350 83.5" xml:space="preserve">
<g>
	<path fill="none" d="M10,10.75c109.334,0,218.666,0,328,0c0,21.333,0,42.667,0,64c-109.334,0-218.666,0-328,0
		C10,53.417,10,32.083,10,10.75z M36.946,40.689c1.542-1.631,3.085-3.26,4.853-5.126c1.406,0.075,3.007,0.163,4.826,0.264
		c-0.541,2.278-0.988,4.166-1.655,6.98c2.152-2.938,3.706-5.06,5.325-7.27c1.783,0.104,3.375,0.197,5.225,0.306
		c-0.936,3.714-1.766,7.013-2.729,10.842c3.067,0,5.535,0,8.003,0c2.438,0,4.878,0,7.218,0c0.697-5.842-0.967-9.849-5.342-13.672
		c-9.999-8.736-28.125-10.051-39.793-2.793c-2.027,1.262-3.819,2.898-5.721,4.362c0.133,0.386,0.266,0.772,0.396,1.158
		c6.645,0,13.286,0,19.799,0c-0.129,2.099-0.218,3.564-0.307,5.031c-0.25,0.304-0.5,0.605-0.137,0.164
		C36.811,41.537,36.879,41.113,36.946,40.689z M104.828,40.046c0.416-0.14,0.574-0.191,0.73-0.246
		c0.182,6.731,0.36,13.464,0.547,20.434c2.653,0,5.041,0,7.567,0c0-11.201,0-22.096,0-33.175c-3.188,0-6.104,0-9.143,0
		c-2.318,5.212-4.566,10.268-7.212,16.216c-2.683-6.075-4.945-11.202-7.127-16.145c-3.438,0-6.52,0-9.649,0
		c0,11.215,0,22.104,0,33.021c2.713,0,5.096,0,8.037,0c0-6.853,0-13.341,0-19.829c0.289-0.037,0.578-0.075,0.867-0.112
		c1.672,3.904,3.343,7.809,4.995,11.668c1.962,0,3.566,0,5.369,0C101.546,47.786,103.223,43.832,104.828,40.046z M187.811,60.178
		c2.402,0,4.604,0,7.168,0c0-7.421,0-14.508,0-21.594c0.258-0.081,0.515-0.162,0.771-0.242c4.22,7.429,8.438,14.857,12.407,21.844
		c2.976,0,5.229,0,7.474,0c0-11.243,0-22.145,0-33.106c-2.401,0-4.485,0-7.213,0c0,5.938,0,11.604,0,17.27
		c-0.296,0.036-0.592,0.071-0.887,0.107c-3.334-5.878-6.668-11.756-10.009-17.644c-1.813,0-3.303,0-4.791,0c-1.602,0-3.202,0-4.92,0
		C187.811,38.281,187.811,49.071,187.811,60.178z M305.439,60.521c4.125,0,7.914,0.102,11.695-0.037
		c2.147-0.079,4.319-0.389,6.415-0.87c6.907-1.59,11.568-8.172,11.56-16.125c-0.009-7.847-4.365-14.084-11.258-15.774
		c-6.014-1.476-12.11-0.973-18.412-0.671C305.439,38.159,305.439,48.926,305.439,60.521z M173.217,27.064
		c0,2.047,0.006,3.838,0,5.632c-0.019,5.49-0.037,10.981-0.063,16.474c-0.025,5.34-6.146,6.75-9.613,4.382
		c-2.012-1.373-2.396-3.507-2.41-5.728c-0.031-5.658,0.008-11.316-0.037-16.975c-0.01-1.264-0.239-2.524-0.372-3.804
		c-2.617,0-4.88,0-7.659,0c0,6.832-0.035,13.441,0.009,20.05c0.063,9.551,4.612,14.065,14.146,14.017
		c1.655-0.01,3.335-0.184,4.956-0.517c5.113-1.052,8.549-4.242,8.819-9.459c0.41-7.92,0.106-15.876,0.106-24.072
		C178.498,27.064,176.105,27.064,173.217,27.064z M149.866,60.386c-3.856-11.547-7.52-22.511-11.128-33.317
		c-3.283,0-6.041,0-8.969,0c-3.671,11.106-7.563,21.916-10.895,33.17c3.15,0,5.57,0,8.046,0c0.826-2.237,1.563-4.232,2.32-6.284
		c3.422,0,6.682,0,9.99,0c0.877,2.316,1.674,4.426,2.434,6.433C144.434,60.386,146.737,60.386,149.866,60.386z M250.896,60.123
		c7.455,0,14.637,0,21.648,0c0-2.315,0-4.212,0-6.621c-4.784,0-9.176,0-13.514,0c0-2.813,0-5.091,0-8.021c4.428,0,8.632,0,12.74,0
		c0-2.577,0-4.484,0-6.822c-4.418,0-8.508,0-12.679,0c0-1.852,0-3.248,0-5.199c4.687,0,9.093,0,13.542,0c0-2.467,0-4.37,0-6.401
		c-7.376,0-14.447,0-21.74,0C250.896,38.212,250.896,49.099,250.896,60.123z M12.661,43.038c0.675,2.887,0.886,5.227,1.767,7.278
		c2.063,4.801,5.889,8.042,10.547,10.155c10.433,4.732,20.98,4.726,31.435,0.07c3.079-1.371,6.018-3.138,8.086-6.568
		c-6.725-0.13-12.961,0.123-19.293-0.163c0.498-2.48,0.854-4.257,1.21-6.032c-0.164-0.052-0.327-0.102-0.491-0.15
		c-1.411,2.025-2.822,4.052-4.378,6.286c-1.72-0.076-3.415-0.15-5.337-0.234c0.562-2.352,0.976-4.088,1.39-5.824
		c-0.157-0.08-0.315-0.16-0.475-0.24c-1.499,2.088-2.997,4.176-4.558,6.35c-1.767-0.096-3.375-0.183-5.272-0.285
		c0.927-3.703,1.761-7.027,2.665-10.641C24.328,43.038,19.061,43.038,12.661,43.038z M223.891,27.07c0,11.144,0,22.023,0,33.15
		c2.67,0,5.056,0,7.933,0c0-4.697,0-9.111,0-14.068c4.385,0,8.291,0,12.169,0c0-2.443,0-4.322,0-6.612c-4.145,0-7.91,0-11.874,0
		c0-2.146,0-3.854,0-6.101c4.711,0,9.114,0,13.526,0c0-2.459,0-4.366,0-6.369C238.266,27.07,231.195,27.07,223.891,27.07z
		 M279.26,60.522c4.062,0,7.543,0.021,11.023-0.007c3.424-0.027,6.848-0.105,10.103-0.159c0-2.529,0-4.43,0-6.689
		c-4.498,0-8.612,0-13.323,0c0-9.069,0-17.792,0-26.478c-3.002,0-5.381,0-7.803,0C279.26,38.349,279.26,49.128,279.26,60.522z"/>
	<path fill="#FFFFFF" d="M104.828,40.046c-1.605,3.786-3.282,7.74-5.018,11.831c-1.802,0-3.406,0-5.368,0
		c-1.652-3.859-3.323-7.764-4.995-11.668c-0.289,0.037-0.578,0.075-0.867,0.112c0,6.488,0,12.978,0,19.829c-2.941,0-5.324,0-8.037,0
		c0-10.917,0-21.807,0-33.021c3.131,0,6.211,0,9.649,0c2.182,4.941,4.444,10.068,7.127,16.145
		c2.646-5.948,4.894-11.005,7.212-16.217c3.039,0,5.955,0,9.143,0c0,11.08,0,21.975,0,33.176c-2.527,0-4.914,0-7.568,0
		c-0.186-6.97-0.364-13.701-0.546-20.434C105.402,39.854,105.244,39.906,104.828,40.046z"/>
	<path fill="#FFFFFF" d="M187.811,60.178c0-11.105,0-21.896,0-33.365c1.718,0,3.318,0,4.92,0c1.488,0,2.979,0,4.791,0
		c3.341,5.888,6.675,11.766,10.009,17.644c0.295-0.036,0.591-0.071,0.887-0.107c0-5.666,0-11.331,0-17.27c2.727,0,4.811,0,7.213,0
		c0,10.963,0,21.863,0,33.107c-2.243,0-4.498,0-7.474,0c-3.969-6.986-8.188-14.415-12.407-21.845
		c-0.256,0.08-0.513,0.161-0.771,0.242c0,7.086,0,14.173,0,21.594C192.414,60.178,190.213,60.178,187.811,60.178z"/>
	<path fill="#FFFFFF" d="M305.439,60.521c0-11.595,0-22.36,0-33.479c6.302-0.302,12.398-0.806,18.412,0.671
		c6.893,1.691,11.249,7.929,11.258,15.774c0.01,7.953-4.651,14.535-11.56,16.125c-2.096,0.481-4.268,0.791-6.415,0.87
		C313.354,60.621,309.564,60.521,305.439,60.521z M313.67,33.903c0,6.72,0,13.105,0,19.563c4.424,0.762,8.236,0.47,10.918-3.314
		c2.216-3.128,2.307-9.665,0.141-12.817C322.115,33.531,318.342,33.029,313.67,33.903z"/>
	<path fill="#FFFFFF" d="M173.217,27.064c2.889,0,5.281,0,7.882,0c0,8.196,0.304,16.152-0.106,24.072
		c-0.271,5.218-3.706,8.407-8.819,9.459c-1.621,0.333-3.301,0.507-4.956,0.517c-9.532,0.05-14.083-4.465-14.146-14.017
		c-0.044-6.607-0.009-13.218-0.009-20.05c2.779,0,5.041,0,7.659,0c0.132,1.278,0.362,2.54,0.372,3.804
		c0.045,5.657,0.006,11.315,0.037,16.975c0.013,2.221,0.398,4.354,2.41,5.728c3.469,2.368,9.588,0.958,9.613-4.382
		c0.024-5.491,0.044-10.981,0.063-16.474C173.223,30.902,173.217,29.111,173.217,27.064z"/>
	<path fill="#FFFFFF" d="M149.866,60.386c-3.129,0-5.434,0-8.2,0c-0.76-2.007-1.557-4.115-2.434-6.433c-3.31,0-6.568,0-9.99,0
		c-0.758,2.052-1.494,4.047-2.32,6.284c-2.476,0-4.896,0-8.046,0c3.331-11.254,7.224-22.063,10.894-33.169c2.929,0,5.687,0,8.97,0
		C142.348,37.875,146.01,48.839,149.866,60.386z M130.946,47.533c2.465,0,4.2,0,6.486,0c-0.96-3.344-1.809-6.296-2.655-9.248
		c-0.308,0.017-0.613,0.033-0.922,0.05C132.936,41.244,132.016,44.153,130.946,47.533z"/>
	<path fill="#FFFFFF" d="M250.896,60.123c0-11.024,0-21.911,0-33.064c7.291,0,14.363,0,21.739,0c0,2.031,0,3.936,0,6.401
		c-4.448,0-8.855,0-13.542,0c0,1.951,0,3.349,0,5.199c4.171,0,8.26,0,12.678,0c0,2.338,0,4.245,0,6.822c-4.107,0-8.313,0-12.739,0
		c0,2.93,0,5.207,0,8.021c4.338,0,8.729,0,13.514,0c0,2.409,0,4.306,0,6.621C265.532,60.123,258.352,60.123,250.896,60.123z"/>
	<path fill="#FFFFFF" d="M12.661,43.038c6.398,0,11.667,0,17.294,0c-0.904,3.612-1.738,6.938-2.665,10.641
		c1.897,0.104,3.507,0.189,5.272,0.285c1.561-2.174,3.059-4.262,4.558-6.35c0.158,0.08,0.315,0.16,0.475,0.239
		c-0.414,1.737-0.828,3.475-1.39,5.825c1.922,0.084,3.617,0.158,5.337,0.234c1.556-2.234,2.967-4.261,4.378-6.286
		c0.164,0.05,0.327,0.1,0.491,0.15c-0.356,1.775-0.712,3.552-1.21,6.032c6.332,0.286,12.567,0.033,19.293,0.163
		c-2.068,3.432-5.007,5.197-8.086,6.568c-10.453,4.654-21.002,4.662-31.435-0.07c-4.659-2.114-8.483-5.354-10.547-10.155
		C13.547,48.265,13.336,45.925,12.661,43.038z"/>
	<path fill="#FFFFFF" d="M37.043,40.773c0.089-1.467,0.178-2.934,0.307-5.031c-6.513,0-13.154,0-19.799,0
		c-0.131-0.386-0.264-0.772-0.396-1.158c1.9-1.464,3.692-3.102,5.721-4.361c11.668-7.259,29.794-5.945,39.793,2.792
		c4.375,3.823,6.039,7.83,5.342,13.672c-2.34,0-4.778,0-7.218,0c-2.468,0-4.936,0-8.003,0c0.965-3.829,1.795-7.128,2.729-10.842
		c-1.85-0.107-3.44-0.201-5.225-0.306c-1.619,2.21-3.173,4.331-5.325,7.27c0.667-2.814,1.114-4.702,1.655-6.98
		c-1.819-0.101-3.42-0.188-4.826-0.264c-1.768,1.866-3.311,3.495-4.853,5.126L37.043,40.773z"/>
	<path fill="#FFFFFF" d="M223.891,27.07c7.306,0,14.375,0,21.754,0c0,2.003,0,3.91,0,6.369c-4.411,0-8.815,0-13.526,0
		c0,2.247,0,3.954,0,6.101c3.964,0,7.729,0,11.874,0c0,2.29,0,4.169,0,6.612c-3.878,0-7.784,0-12.169,0c0,4.957,0,9.371,0,14.068
		c-2.877,0-5.263,0-7.933,0C223.891,49.095,223.891,38.214,223.891,27.07z"/>
	<path fill="#FFFFFF" d="M279.26,60.522c0-11.396,0-22.175,0-33.333c2.422,0,4.801,0,7.803,0c0,8.686,0,17.407,0,26.478
		c4.712,0,8.825,0,13.323,0c0,2.261,0,4.16,0,6.689c-3.255,0.054-6.679,0.132-10.103,0.159
		C286.803,60.544,283.32,60.522,279.26,60.522z"/>
	<path d="M36.946,40.689c-0.067,0.424-0.137,0.848-0.04,0.249c-0.363,0.44-0.113,0.139,0.137-0.165L36.946,40.689z"/>
	<path fill="none" d="M313.67,33.903c4.672-0.874,8.445-0.372,11.059,3.431c2.166,3.152,2.075,9.689-0.141,12.817
		c-2.682,3.784-6.494,4.076-10.918,3.314C313.67,47.01,313.67,40.623,313.67,33.903z"/>
	<path fill="none" d="M130.946,47.533c1.068-3.38,1.988-6.289,2.909-9.198c0.309-0.017,0.614-0.033,0.922-0.05
		c0.848,2.952,1.695,5.904,2.655,9.248C135.146,47.533,133.411,47.533,130.946,47.533z"/>
</g>
</svg>
