<?xml version="1.0" encoding="utf-8"?>
<!-- Generator: Adobe Illustrator 16.0.0, SVG Export Plug-In . SVG Version: 6.00 Build 0)  -->
<!DOCTYPE svg PUBLIC "-//W3C//DTD SVG 1.1//EN" "http://www.w3.org/Graphics/SVG/1.1/DTD/svg11.dtd">
<svg version="1.1" id="Layer_1" xmlns="http://www.w3.org/2000/svg" xmlns:xlink="http://www.w3.org/1999/xlink" x="0px" y="0px"
	 width="700px" height="700px" viewBox="0 0 700 700" enable-background="new 0 0 700 700" xml:space="preserve">
<g>
	<g>
		<path fill="#CC0033" d="M350-1C210.212-1,96.486,112.726,96.486,252.513c0,173.479,226.87,428.157,236.529,438.914
			c9.072,10.105,24.913,10.088,33.969,0c9.659-10.757,236.529-265.435,236.529-438.914C603.511,112.726,489.787-1,350-1z"/>
	</g>
</g>
<g>
	<path fill-rule="evenodd" clip-rule="evenodd" fill="#FFFFFF" d="M151.581,226.583c45.756,0,83.418,0,123.651,0
		c-6.466,25.828-12.429,49.602-19.056,76.081c13.567,0.732,25.074,1.355,37.698,2.039c11.158-15.544,21.869-30.472,32.587-45.4
		c1.133,0.572,2.263,1.146,3.395,1.719c-2.961,12.421-5.922,24.836-9.937,41.648c13.74,0.601,25.861,1.132,38.158,1.676
		c11.122-15.976,21.212-30.464,31.303-44.945c1.173,0.357,2.339,0.713,3.512,1.075c-2.548,12.701-5.091,25.396-8.651,43.138
		c45.275,2.047,89.864,0.236,137.944,1.166c-14.789,24.529-35.799,37.16-57.813,46.963c-74.74,33.278-150.163,33.335-224.75-0.502
		c-33.313-15.116-60.663-38.292-75.409-72.617C157.914,263.953,156.406,247.224,151.581,226.583z"/>
	<path fill-rule="evenodd" clip-rule="evenodd" fill="#FFFFFF" d="M325.91,210.391c0.637-10.48,1.272-20.967,2.192-35.972
		c-46.565,0-94.06,0-141.561,0c-0.936-2.759-1.885-5.524-2.835-8.282c13.595-10.466,26.408-22.176,40.903-31.19
		c83.426-51.893,213.025-42.501,284.52,19.969c31.28,27.337,43.178,55.985,38.192,97.755c-16.73,0-34.171,0-51.607,0
		c-17.644,0-35.288,0-57.22,0c6.898-27.386,12.833-50.966,19.522-77.52c-13.225-0.775-24.605-1.438-37.355-2.187
		c-11.577,15.802-22.686,30.968-38.075,51.978c4.769-20.131,7.967-33.628,11.835-49.917c-13.008-0.713-24.453-1.341-34.507-1.885
		c-12.639,13.35-23.671,24.997-34.695,36.651L325.91,210.391z"/>
</g>
</svg>
