<?xml version="1.0" encoding="utf-8"?>
<!-- Generator: Adobe Illustrator 16.0.0, SVG Export Plug-In . SVG Version: 6.00 Build 0)  -->
<!DOCTYPE svg PUBLIC "-//W3C//DTD SVG 1.1//EN" "http://www.w3.org/Graphics/SVG/1.1/DTD/svg11.dtd">
<svg version="1.1" id="Layer_1" xmlns="http://www.w3.org/2000/svg" xmlns:xlink="http://www.w3.org/1999/xlink" x="0px" y="0px"
	 width="700px" height="700px" viewBox="0 0 700 700" enable-background="new 0 0 700 700" xml:space="preserve">
<g>
	<path fill-rule="evenodd" clip-rule="evenodd" fill="#FFFFFF" d="M345.477,542.702c-4.933-2.294-9.795-4.754-14.81-6.854
		c-32.14-13.461-59.678-33.201-81.87-60.145c-25.203-30.598-40.732-65.535-45.814-104.893c-1.339-10.37-1.923-20.897-2.008-31.36
		c-0.255-31.351-0.03-62.705-0.157-94.056c-0.019-4.835,1.759-7.806,6.026-10.131c46.228-25.189,92.38-50.516,138.548-75.814
		c0.313-0.171,0.559-0.463,0.835-0.699c1.5,0,3,0,4.499,0c12.935,6.977,25.842,14.003,38.807,20.921
		c34.451,18.383,68.888,36.793,103.436,54.992c5.063,2.667,7.128,5.965,7.083,11.779c-0.243,30.978-0.097,61.958-0.119,92.938
		c-0.061,85.255-48.26,158.788-126.401,192.897c-7.869,3.435-15.704,6.948-23.554,10.426
		C348.476,542.702,346.977,542.702,345.477,542.702z M215.254,303.692c-0.282,0.012-0.563,0.023-0.845,0.035
		c0.91,21.824,0.447,43.812,3.018,65.438c5.272,44.333,25.188,81.88,56.988,113.153c20.665,20.322,45.399,34.082,72.091,44.663
		c0.903,0.358,2.228,0.328,3.118-0.063c10.393-4.562,21.125-8.525,31.036-13.979c67.883-37.341,102.874-95.036,104.829-172.394
		c0.758-29.971,0.086-59.978,0.192-89.968c0.009-2.663-0.923-3.949-3.183-5.149c-43.646-23.178-87.26-46.421-130.84-69.725
		c-2.226-1.19-3.89-1.279-6.168-0.024c-42.42,23.356-84.881,46.639-127.387,69.836c-2.215,1.209-2.915,2.518-2.901,4.943
		C215.299,268.203,215.254,285.948,215.254,303.692z"/>
	<path fill-rule="evenodd" clip-rule="evenodd" fill="#FFFFFF" d="M328.935,377.672c11.617-9.447,22.938-18.65,34.257-27.857
		c15.785-12.842,31.581-25.67,47.338-38.548c2.351-1.921,4.991-3.577,7.811-2.16c2.006,1.008,4.005,3.08,4.828,5.146
		c1.227,3.077-0.537,5.746-3.063,7.793c-9.31,7.546-18.602,15.115-27.896,22.679c-18.979,15.443-37.957,30.888-56.935,46.332
		c-6.78,5.518-9.334,5.316-14.93-1.23c-11.681-13.667-23.366-27.331-35.015-41.025c-3.265-3.838-3.184-8.206,0.053-10.945
		c3.24-2.742,7.506-2.096,10.851,1.646c0.416,0.465,0.815,0.945,1.22,1.42c9.321,10.921,18.64,21.844,27.965,32.761
		C326.469,374.913,327.557,376.11,328.935,377.672z"/>
</g>
</svg>
