<?xml version="1.0" encoding="utf-8"?>
<!-- Generator: Adobe Illustrator 16.0.0, SVG Export Plug-In . SVG Version: 6.00 Build 0)  -->
<!DOCTYPE svg PUBLIC "-//W3C//DTD SVG 1.1//EN" "http://www.w3.org/Graphics/SVG/1.1/DTD/svg11.dtd">
<svg version="1.1" id="Layer_1" xmlns="http://www.w3.org/2000/svg" xmlns:xlink="http://www.w3.org/1999/xlink" x="0px" y="0px"
	 width="462px" height="439px" viewBox="0 0 462 439" enable-background="new 0 0 462 439" xml:space="preserve">
<g>
	<path fill-rule="evenodd" clip-rule="evenodd" fill="#FFFFFF" d="M85.339,404.702c-10.999,0-21.997,0-32.996,0
		c0-127.984,0-255.968,0-383.952c61.242,0,122.485,0,183.727,0c-0.829,0.224-1.646,0.56-2.489,0.655
		c-56.119,6.353-96.004,58.363-87.346,113.921c8.703,55.854,61.966,93.201,117.488,82.385c49.624-9.666,84.224-55.832,79.75-106.405
		c-3.639-41.128-32.378-75.771-72.243-86.797c-6.101-1.687-12.435-2.527-18.661-3.759c61.242,0,122.484,0,183.728,0
		c0,127.984,0,255.968,0,383.952c-10.999,0-21.997,0-32.996,0c0.939-16.153,0.343-32.201-3.227-48.054
		c-21.484-95.414-121.126-149.588-212.543-114.401c-53.512,20.597-86.158,60.446-99.254,116.254
		C84.704,373.726,84.521,389.187,85.339,404.702z"/>
	<path fill-rule="evenodd" clip-rule="evenodd" fill="#FFFFFF" d="M85.339,404.702c-0.818-15.516-0.635-30.977,2.937-46.201
		c13.096-55.808,45.742-95.657,99.254-116.254c91.417-35.187,191.059,18.987,212.543,114.401c3.569,15.853,4.166,31.9,3.227,48.054
		C297.313,404.702,191.327,404.702,85.339,404.702z M100.551,388.715c96.02,0,191.774,0,287.53,0
		c-0.844-75.782-62.925-141.845-143.964-141.623C161.886,247.316,101.354,314.227,100.551,388.715z"/>
	<path fill-rule="evenodd" clip-rule="evenodd" fill="#FFFFFF" d="M252.568,20.75c6.227,1.231,12.561,2.072,18.661,3.759
		c39.865,11.026,68.604,45.669,72.243,86.797c4.474,50.573-30.126,96.739-79.75,106.405
		c-55.522,10.816-108.785-26.531-117.488-82.385c-8.658-55.558,31.228-107.568,87.346-113.921c0.844-0.095,1.66-0.431,2.489-0.655
		C241.57,20.75,247.069,20.75,252.568,20.75z M160.703,120.059c-0.058,45.414,35.969,82.416,80.866,83.819
		c45.921,1.436,84.938-34.879,86.813-79.877c1.962-47.037-34.82-85.838-79.738-87.453C199.786,34.79,162.159,70.838,160.703,120.059
		z"/>
</g>
</svg>
